<svg id="Layer_1" data-name="Layer 1" xmlns="http://www.w3.org/2000/svg" viewBox="0 0 500 212"><defs><style>.cls-1{fill:#fff;}</style></defs><path class="cls-1" d="M155.38,31.43a13.08,13.08,0,0,0-13.07,13.08V167.7a13.07,13.07,0,1,0,26.14,0V44.51A13.08,13.08,0,0,0,155.38,31.43Z"/><path class="cls-1" d="M272.16,154.63H219V44.25A13.08,13.08,0,0,0,206,31.18h0a13.07,13.07,0,0,0-13.07,13.07V163.92a16.55,16.55,0,0,0,16.6,16.55l62.71-.19a12.83,12.83,0,0,0,0-25.65Z"/><path class="cls-1" d="M123.49,116.66q-4.9-8.79-15.21-14.58a42.16,42.16,0,0,0,9.3-23,43.58,43.58,0,0,0-4.15-23A46,46,0,0,0,98,38.35q-10.32-7.17-24.64-7.17H35a13,13,0,0,0,0,25.9H73.33q8,0,12.57,4.43A18.6,18.6,0,0,1,91.43,72a24.8,24.8,0,0,1-1.38,12.65,22.7,22.7,0,0,1-8.43,10.89h-47a12.57,12.57,0,0,0,0,25.14H83.89q8.79,0,13.2,5.32a18,18,0,0,1,0,23.55q-4.41,5.33-13.2,5.32h-49a12.75,12.75,0,0,0-12.75,12.65v.39a12.77,12.77,0,0,0,12.76,12.86h49a43.53,43.53,0,0,0,19-4,45,45,0,0,0,14.2-10.44,44.48,44.48,0,0,0,8.8-14.58,43.19,43.19,0,0,0,2.77-16.47A40,40,0,0,0,123.49,116.66Z"/><path class="cls-1" d="M377.74,154.63H324.62V44.25a13.08,13.08,0,0,0-26.15,0V163.92a16.55,16.55,0,0,0,16.6,16.55l62.71-.19a12.83,12.83,0,0,0,0-25.65Z"/><path class="cls-1" d="M466.6,31.27h0a11.34,11.34,0,0,0-9.81,5.66L422.7,96.61l1.91.36L388,36.84a11.35,11.35,0,0,0-9.82-5.66h0a11.34,11.34,0,0,0-9.83,17l41.27,71.75V167.7a13.08,13.08,0,0,0,13.07,13.08l.3,0v.06a13.07,13.07,0,0,0,12.14-13V120l41.27-71.75A11.34,11.34,0,0,0,466.6,31.27Z"/></svg>